<svg version="1" xmlns="http://www.w3.org/2000/svg" width="700" height="700" viewBox="0 0 525.000000 525.000000"><path d="M91.2 52.7c-1.9 2.7-3.9 6.1-8.7 14.8-6.7 12.1-15 26.1-15.9 26.7-.6.4-.8.8-.3.8.4 0-.3 1.7-1.6 3.7-2 3.2-5.4 9.1-10.1 17.8-.6 1.1-1.4 2.2-1.7 2.5-.4.3-1.9 2.7-3.3 5.5-3.2 5.9-4.7 8.4-15.4 27.3-4.5 7.8-8.2 14.4-8.2 14.7 0 .3 38 .5 84.5.5H195v151.2l2.9 5.1c1.5 2.9 4.4 7.9 6.3 11.2 8.3 14.2 15.3 26.3 17.3 30.1 1.3 2.2 3.5 5.9 4.9 8.2 1.4 2.3 2.6 4.6 2.6 5.2 0 .5.5 1 1.1 1 .5 0 .8.4.4.9-.3.5-.1 1.2.4 1.5.8.6 8.1 12.9 8.1 13.8 0 .2-9.9.3-22 .3-12.1-.1-22 .1-22 .4.1.4 1.4 2.8 3.1 5.6 1.6 2.7 3.6 6.3 4.5 8 .8 1.6 2.7 5 4.2 7.5s4.3 7.3 6.2 10.8c1.9 3.4 3.7 6.2 4 6.2.3 0 3-4.4 5.9-9.8 3-5.3 5.8-9.9 6.1-10.2.3-.3 1.4-2.1 2.3-4 2.2-4.3 7-12.6 7.8-13.4.3-.3 3.2 4.2 6.4 10.2 3.2 5.9 7.6 13.5 9.7 17 2.1 3.4 3.8 6.5 3.8 6.8 0 .3 1.3 2.5 3 4.9 1.6 2.4 3 4.8 3 5.4 0 .6.5 1.1 1 1.1.6 0 1 .4 1 .9 0 .4 3.8 7.5 8.5 15.7 4.7 8.1 8.3 15.4 8.1 16.1-.3.7-.1 1.3.4 1.3.6 0 1-.7 1-1.5 0-.9 1.1-3.2 2.3-5.3 2.1-3.3 20.7-35.4 24.6-42.5.9-1.6 2.1-3.6 2.6-4.5.6-.9 3.7-6.4 6.9-12.2 3.2-5.8 6.6-11.3 7.4-12.3 1.7-1.9 2.8-1.9-62.5-1.7-14.5 0-26.3-.2-26.3-.6 0-.3 3.4-6.5 7.7-13.7 4.2-7.3 8.7-15.2 10.1-17.7 1.3-2.5 3-5.2 3.6-6 .7-.8 2.1-3.4 3.2-5.7 1-2.4 2.2-4.3 2.7-4.3.4 0 .7-.6.7-1.4 0-.7.7-1.9 1.5-2.6.8-.7 1.3-1.6 1-2-.3-.5-.1-1 .3-1.2.4-.1 3.5-5.1 6.8-11 3.2-5.9 6.4-10.8 6.9-10.8.6 0 3.4 4.3 6.4 9.5 2.9 5.2 5.7 9.8 6.2 10.1.5.3.7 1 .4 1.5-.4.5-.1.9.4.9.6 0 1.1.4 1.1 1 0 .5 1.8 3.9 4 7.5s3.6 6.5 3.2 6.6c-.4.1-9.7.2-20.7.4-11 .1-20.6.3-21.2.4-.9.1-.6 1.4.9 4.3 1.2 2.4 2.4 4.5 2.7 4.8.4.3 1.6 2.3 2.8 4.5 9.8 17.6 13.9 24.5 14.4 24.5.3 0 1.5-1.9 2.7-4.3 1.3-2.3 2.8-5.1 3.5-6.2 2.2-3.6 12-20.9 16.2-28.5 2.3-4.1 5.1-9.2 6.3-11.2 10.6-18.4 14.8-25.3 15.4-25.6.5-.2.8-34.5.8-76.3V167h50.8c27.9 0 51.2-.4 51.7-.8.6-.4 1.7-2.1 2.5-3.7.8-1.7 1.8-3.2 2.1-3.5.3-.3 1.2-1.7 2-3.2 5.8-11.1 7.4-13.8 8.1-13.8.4 0 .8-.5.8-1 0-.9 2.7-5.8 7-13 3.2-5.2 11-19.1 11-19.5 0-.2 2.5-4.4 5.5-9.4s5.5-9.3 5.5-9.5c0-.4 6.4-11.7 10.1-17.6.5-.8 1.8-3.3 3-5.5s2.7-4.3 3.3-4.7c.6-.4.8-.8.4-.8s.6-2.2 2.2-4.9c1.7-2.6 3-5.1 3-5.5 0-.3-91.3-.6-202.9-.6h-203l-1.9 2.7z"/><path d="M218 436c0 .9 2.3 5.1 5.8 10.5.6 1.1 1.7 3.1 2.2 4.4.6 1.3 1.9 3.5 2.9 5 1.7 2.5 7.2 12.2 9.5 16.7.9 1.8 2.3-.2 11.8-16.9 5.9-10.4 10.8-19.3 10.8-19.7 0-.5-9.7-.9-21.5-1-14 0-21.5.3-21.5 1z"/></svg>